<svg id="Layer_1" data-name="Layer 1" xmlns="http://www.w3.org/2000/svg" viewBox="0 0 1080 1080"><path d="M624.41,476.22a157,157,0,0,0,16.36-30.4c18.07-50.32-3.08-84.24-32.06-95.54a64.84,64.84,0,0,0-9.42-2.76A71.69,71.69,0,0,0,584.17,346H415.69v82.38h50.38v-32H581a21.64,21.64,0,0,1,7.09,1.08c6.9,2.39,11.44,8,12.78,15.9,2.4,14.14-5.53,30.79-20.2,42.4a76.94,76.94,0,0,1-30.76,14.31V421.42H528.36V604.05a6,6,0,0,1-12,0V421.42H495.6V610.13l2.24.52a17.66,17.66,0,0,1,13.4,17.09l0,2.91h23v-2.91a17.64,17.64,0,0,1,13.42-17.09l2.21-.52v-90.6a81.51,81.51,0,0,0,35.2-8.48A92,92,0,0,1,540,683.26l-2.39,0c-50.18-1.27-90.38-43.18-89.6-93.41a90.93,90.93,0,0,1,8.3-36.81l.72-1.57-32.79-43.71L422,511.09A142.7,142.7,0,0,0,534.37,733.9c1.89.07,3.76.11,5.63.11,78.7,0,142.74-64,142.74-142.75A143.08,143.08,0,0,0,624.41,476.22Z"/><circle cx="523.65" cy="649.25" r="13.43"/></svg>